<?xml version="1.0" standalone="no"?><!DOCTYPE svg PUBLIC "-//W3C//DTD SVG 1.1//EN" "http://www.w3.org/Graphics/SVG/1.1/DTD/svg11.dtd"><svg t="1618973364185" class="icon" viewBox="0 0 1024 1024" version="1.1" xmlns="http://www.w3.org/2000/svg" p-id="15363" xmlns:xlink="http://www.w3.org/1999/xlink" width="200" height="200"><defs><style type="text/css"></style></defs><path d="M536.7 786h-74C289.8 786 211 640.2 211 504.7V401.1h577.4v103.6c0 135.5-78.8 281.3-251.7 281.3z" fill="#FFFFFF" p-id="15364"></path><path d="M691.8 401.1v103.6c0 132.5-75.4 274.8-240.4 281 3.7 0.1 7.4 0.3 11.3 0.3h74c172.9 0 251.7-145.8 251.7-281.3V401.1h-96.6z" fill="#E9EFF8" p-id="15365"></path><path d="M871.1 887.9H153.9c-34.8 0-69-34-69-68.6v-13.8l855.1-0.4v13.8c0 35.5-33.5 69-68.9 69z" fill="#8B3F37" p-id="15366"></path><path d="M871.1 908.6H153.9c-46.1 0-89.7-43.4-89.7-89.3v-13.8c0-11.4 9.3-20.7 20.7-20.7l855.1-0.4c5.5 0 10.7 2.2 14.6 6.1s6.1 9.1 6.1 14.6v13.8c0 47-42.7 89.7-89.6 89.7z m-764.8-82.4c4.2 21 26.4 41 47.6 41h717.2c21.6 0 43.6-19.9 47.6-41.4l-812.4 0.4z" fill="#3D2C1F" p-id="15367"></path><path d="M788.4 401.1v103.6c0 135.5-78.8 281.3-251.7 281.3h-74C289.8 786 211 640.2 211 504.7V401.1h577.4m0-34.5H211c-19 0-34.5 15.4-34.5 34.5v103.6c0 152.1 89.5 315.8 286.2 315.8h74c196.6 0 286.2-163.7 286.2-315.8V401.1c-0.1-19-15.5-34.5-34.5-34.5z" fill="#3D2C1F" p-id="15368"></path><path d="M822.3 571.1h-34v-34h34c41.3 0 68-26.7 68-68s-26.7-68-68-68h-34v-34h34c60 0 101.9 41.9 101.9 101.9s-41.8 102.1-101.9 102.1z" fill="#3D2C1F" p-id="15369"></path><path d="M419.43838 621.879648a120.3 101.3 67.926 1 0 187.74927-76.137846 120.3 101.3 67.926 1 0-187.74927 76.137846Z" fill="#8B3F37" p-id="15370"></path><path d="M550.4 665.8c-1.1 0.5-2.5 0.5-3.7 0-2.3-0.9-3.6-3.3-3.1-5.7 0.2-1.3 5.7-33.1-39.5-70.1-49.8-40.8-24.1-88.3-23.9-88.8 1.2-2.1 3.7-3.1 6-2.3 2.3 0.8 3.7 3.1 3.3 5.5-0.2 1.4-4.6 34.2 39.4 70.3 51.2 41.9 24.1 88.4 23.8 88.9-0.4 1.1-1.3 1.8-2.3 2.2z" fill="#FFFFFF" p-id="15371"></path><path d="M871.1 887.9H153.9c-34.8 0-69-34-69-68.6v-13.8l855.1-0.4v13.8c0 35.5-33.5 69-68.9 69z" fill="#8B3F37" p-id="15372"></path><path d="M871.1 905.2H153.9c-44.3 0-86.2-41.7-86.2-85.9v-13.8c0-9.5 7.7-17.2 17.2-17.2l855.1-0.4c4.6 0 9 1.8 12.2 5.1 3.2 3.2 5.1 7.6 5.1 12.2V819c0 45.1-41.1 86.2-86.2 86.2z m-768.8-82.5c2.3 23.9 27.6 47.9 51.6 47.9h717.2c24.9 0 49.5-23.4 51.6-48.3l-820.4 0.4z" fill="#3D2C1F" p-id="15373"></path><path d="M504.7 317.4c-5.4 0-10.8-2.6-14.1-7.3-5.5-7.8-3.6-18.5 4.2-24 6.3-4.5 24.6-20.9 25.2-36.5 0.1-2.9 0.5-11.6-13.3-23.2-22.6-19-27.4-39.2-27.4-52.7-0.1-34.4 28.6-59.6 31.8-62.3 7.3-6.2 18.2-5.2 24.3 2 6.1 7.3 5.3 18.1-2 24.3-5.5 4.8-19.7 20.5-19.7 36.1 0.1 9.1 5 17.7 15.2 26.3 22.1 18.6 26.1 38.1 25.5 51.1-1.5 35.2-36 60.4-39.9 63.1-3 2.1-6.4 3.1-9.8 3.1z" fill="#3D2C1F" p-id="15374"></path><path d="M667 317.4c-5.4 0-10.8-2.6-14.1-7.3-5.5-7.8-3.6-18.5 4.2-24 6.3-4.5 24.6-20.9 25.2-36.5 0.1-2.9 0.5-11.6-13.3-23.2-22.6-19-27.4-39.2-27.4-52.7-0.1-34.4 28.6-59.6 31.8-62.3 7.3-6.2 18.1-5.2 24.3 2 6.1 7.3 5.3 18.1-2 24.3-5.5 4.8-19.7 20.5-19.7 36.1 0.1 9.1 5 17.7 15.2 26.3 22.1 18.6 26.1 38.1 25.5 51.1-1.5 35.2-36 60.4-39.9 63.1-2.9 2.1-6.4 3.1-9.8 3.1z" fill="#3D2C1F" p-id="15375"></path><path d="M342.3 317.4c-5.4 0-10.8-2.6-14.1-7.3-5.5-7.8-3.6-18.5 4.2-24 6.3-4.5 24.6-20.9 25.3-36.5 0.1-2.9 0.5-11.6-13.3-23.2-22.6-19-27.4-39.2-27.4-52.7-0.1-34.4 28.6-59.6 31.8-62.3 7.3-6.2 18.2-5.2 24.3 2 6.1 7.3 5.3 18.1-2 24.3-5.5 4.8-19.7 20.5-19.7 36.1 0.1 9.1 5 17.7 15.2 26.3 22.1 18.6 26.1 38.1 25.5 51.1-1.5 35.2-36 60.4-39.9 63.1-3 2.1-6.5 3.1-9.9 3.1z" fill="#3D2C1F" p-id="15376"></path></svg>